<svg width="20" height="22" viewBox="0 0 20 22" fill="none" xmlns="http://www.w3.org/2000/svg">
<g clip-path="url(#clip0_22565_1018)">
<path d="M16.9591 4.14889C16.5434 3.68899 16.05 3.32417 15.5068 3.07526C14.9637 2.82635 14.3815 2.69824 13.7936 2.69824C13.2057 2.69824 12.6235 2.82635 12.0803 3.07526C11.5372 3.32417 11.0437 3.68899 10.6281 4.14889L9.7655 5.10289L8.90292 4.14889C8.06338 3.22036 6.92472 2.69872 5.73743 2.69872C4.55014 2.69872 3.41148 3.22036 2.57193 4.14889C1.73239 5.07741 1.26074 6.33676 1.26074 7.64988C1.26074 8.96301 1.73239 10.2224 2.57193 11.1509L3.43451 12.1049L9.7655 19.1069L16.0965 12.1049L16.9591 11.1509C17.3749 10.6912 17.7048 10.1454 17.9298 9.5447C18.1549 8.94399 18.2707 8.30012 18.2707 7.64988C18.2707 6.99965 18.1549 6.35578 17.9298 5.75507C17.7048 5.15435 17.3749 4.60857 16.9591 4.14889V4.14889Z" stroke="#20BFA9" stroke-width="2.025" stroke-linecap="round" stroke-linejoin="round"/>
</g>
<defs>
<clipPath id="clip0_22565_1018">
<rect width="19.5301" height="21.6" fill="white"/>
</clipPath>
</defs>
</svg>
