<svg width="29" height="32" viewBox="0 0 29 32" fill="none" xmlns="http://www.w3.org/2000/svg">
<g clip-path="url(#clip0_22517_7246)">
<path d="M25.124 6.14715C24.5082 5.46582 23.7771 4.92534 22.9725 4.55659C22.1678 4.18784 21.3053 3.99805 20.4343 3.99805C19.5633 3.99805 18.7009 4.18784 17.8962 4.55659C17.0916 4.92534 16.3605 5.46582 15.7447 6.14715L14.4668 7.56048L13.1889 6.14715C11.9452 4.77156 10.2583 3.99876 8.49932 3.99876C6.74037 3.99876 5.05346 4.77156 3.80969 6.14715C2.56593 7.52274 1.86719 9.38844 1.86719 11.3338C1.86719 13.2792 2.56593 15.1449 3.80969 16.5205L5.08758 17.9338L14.4668 28.3071L23.8461 17.9338L25.124 16.5205C25.74 15.8395 26.2287 15.0309 26.5621 14.141C26.8955 13.251 27.0671 12.2971 27.0671 11.3338C27.0671 10.3705 26.8955 9.41662 26.5621 8.52667C26.2287 7.63673 25.74 6.82816 25.124 6.14715V6.14715Z" stroke="#20BFA9" stroke-width="3" stroke-linecap="round" stroke-linejoin="round"/>
</g>
<defs>
<clipPath id="clip0_22517_7246">
<rect width="28.9334" height="32" fill="white"/>
</clipPath>
</defs>
</svg>
