<svg width="10" height="12" viewBox="0 0 10 12" fill="none" xmlns="http://www.w3.org/2000/svg">
<path fill-rule="evenodd" clip-rule="evenodd" d="M6.74707 7.38772L1.02734 10.5977C0.771385 10.741 0.536587 10.7642 0.356445 10.6885L5.22266 5.88187L6.74707 7.38772ZM4.93555 5.59866L0.0761719 10.3975C0.0292257 10.2913 0 10.1628 0 10.0117V1.18558C0 1.03429 0.0289528 0.905279 0.0761719 0.798858L4.93555 5.59866ZM8.9082 5.02249C9.47279 5.33938 9.47279 5.85853 8.9082 6.17581L7.11426 7.18167L5.51074 5.59769L7.1123 4.01468L8.9082 5.02249ZM0.356445 0.508819C0.536635 0.43329 0.771523 0.457058 1.02734 0.600616L6.74707 3.8096L5.22363 5.31448L0.356445 0.508819Z" fill="white"/>
</svg>
