<svg width="16" height="16" viewBox="0 0 16 16" fill="none" xmlns="http://www.w3.org/2000/svg">
<path d="M10.3537 12.646C10.4001 12.6925 10.437 12.7476 10.4621 12.8083C10.4872 12.869 10.5002 12.9341 10.5002 12.9998C10.5002 13.0655 10.4872 13.1305 10.4621 13.1912C10.437 13.2519 10.4001 13.3071 10.3537 13.3535C10.3072 13.4 10.2521 13.4368 10.1914 13.462C10.1307 13.4871 10.0656 13.5001 9.99991 13.5001C9.93421 13.5001 9.86915 13.4871 9.80846 13.462C9.74776 13.4368 9.69261 13.4 9.64616 13.3535L4.64616 8.35354C4.59967 8.3071 4.56279 8.25196 4.53763 8.19126C4.51246 8.13056 4.49951 8.0655 4.49951 7.99979C4.49951 7.93408 4.51247 7.86902 4.53763 7.80832C4.56279 7.74762 4.59967 7.69248 4.64616 7.64604L9.64616 2.64604C9.73998 2.55222 9.86723 2.49951 9.99991 2.49951C10.1326 2.49951 10.2598 2.55222 10.3537 2.64604C10.4475 2.73986 10.5002 2.86711 10.5002 2.99979C10.5002 3.13247 10.4475 3.25972 10.3537 3.35354L5.70678 7.99979L10.3537 12.646Z" fill="black"/>
</svg>
