<svg width="20" height="24" viewBox="0 0 20 24" fill="none" xmlns="http://www.w3.org/2000/svg">
<path fill-rule="evenodd" clip-rule="evenodd" d="M14.4609 15.8325L2.20117 22.7124C1.65268 23.0195 1.14973 23.0717 0.763672 22.9096L11.1943 12.6069L14.4609 15.8325ZM10.5781 11.9975L0.158203 22.2895C0.0569657 22.0616 5.33066e-05 21.7832 0 21.4585V2.54146C0 2.21655 0.0566045 1.9368 0.158203 1.70846L10.5781 11.9975ZM19.0918 10.7651C20.3018 11.4442 20.3018 12.5558 19.0918 13.2358L15.248 15.392L11.8115 11.9975L15.2441 8.60592L19.0918 10.7651ZM0.764648 1.08931C1.1507 0.927948 1.65337 0.980147 2.20117 1.28756L14.459 8.16549L11.1953 11.3891L0.764648 1.08931Z" fill="white"/>
</svg>
