<svg width="201" height="23" viewBox="0 0 201 23" fill="none" xmlns="http://www.w3.org/2000/svg">
<path d="M57.7401 0L57.2705 0C57.5053 0 57.5813 0 57.7401 0Z" fill="black"/>
<path d="M57.7401 0C60.074 0 61.9661 1.89204 61.9661 4.22601C61.9661 4.38472 61.9831 4.54138 61.9661 4.69556V5.16512C61.9661 11.389 67.0115 16.4345 73.2354 16.4345L126.765 16.4345C132.989 16.4345 138.034 11.389 138.034 5.16512V4.69556C138.034 4.46079 138.034 4.38472 138.034 4.22601C138.034 1.89204 139.926 0 142.26 0C142.419 0 142.495 0 142.73 0L142.26 0L57.7401 0Z" fill="black"/>
</svg>
