<svg width="20" height="24" viewBox="0 0 20 24" fill="none" xmlns="http://www.w3.org/2000/svg">
<path fill-rule="evenodd" clip-rule="evenodd" d="M14.4609 15.8328L2.20117 22.7126C1.65271 23.0198 1.14972 23.072 0.763672 22.9099L11.1943 12.6072L14.4609 15.8328ZM10.5781 11.9978L0.158203 22.2898C0.0568858 22.0618 0 21.7827 0 21.4578V2.54077C5.17922e-05 2.21611 0.056683 1.93696 0.158203 1.70874L10.5781 11.9978ZM19.0918 10.7654C20.3018 11.4445 20.3018 12.5561 19.0918 13.2361L15.248 15.3923L11.8115 11.9978L15.2451 8.6062L19.0918 10.7654ZM0.764648 1.0896C1.15067 0.928223 1.6534 0.979515 2.20117 1.28687L14.459 8.16577L11.1953 11.3894L0.764648 1.0896Z" fill="#041133"/>
</svg>
