<svg width="7" height="15" viewBox="0 0 7 15" fill="none" xmlns="http://www.w3.org/2000/svg">
<path d="M6.51566 2.85748V4.72105H0V2.85748H6.51566ZM1.74739 0H4.06947V11.2824C4.06947 11.7327 4.1368 12.0718 4.27107 12.2995C4.40571 12.5221 4.57947 12.6749 4.79159 12.7577C5.00898 12.8353 5.24442 12.8741 5.4983 12.8741C5.68447 12.8741 5.8477 12.8612 5.98761 12.8353C6.12715 12.8094 6.23622 12.7887 6.3137 12.7732L6.73306 14.6911C6.59841 14.7429 6.40697 14.7946 6.15836 14.8464C5.90976 14.9034 5.59909 14.9344 5.22637 14.9396C4.61557 14.95 4.04615 14.8412 3.5181 14.6135C2.98967 14.3857 2.56279 14.0337 2.2367 13.5575C1.91024 13.0812 1.74739 12.4833 1.74739 11.7638V0Z" fill="white"/>
</svg>
