<svg width="11" height="17" viewBox="0 0 11 17" fill="none" xmlns="http://www.w3.org/2000/svg">
<path d="M4.98578 16.1354C4.0228 16.1354 3.16335 15.8895 2.40746 15.3977C1.65675 14.9008 1.06656 14.1942 0.636822 13.2779C0.212273 12.3565 0 11.2513 0 9.96231C0 8.67334 0.21487 7.57074 0.644609 6.6545C1.0795 5.73826 1.67488 5.03684 2.43077 4.55023C3.18667 4.06362 4.04352 3.82031 5.00131 3.82031C5.74168 3.82031 6.33705 3.94454 6.78751 4.19304C7.24309 4.43635 7.59516 4.72105 7.84366 5.04719C8.09738 5.37329 8.29412 5.66058 8.43388 5.90908H8.57368V0H10.8957V15.9024H8.62803V14.0466H8.43388C8.29412 14.3003 8.09219 14.5902 7.82813 14.9163C7.56929 15.2425 7.21203 15.5272 6.75645 15.7705C6.30083 16.0137 5.71061 16.1354 4.98578 16.1354ZM5.49834 14.1554C6.16622 14.1554 6.73053 13.9793 7.19134 13.6273C7.6573 13.2702 8.00933 12.7758 8.24752 12.1443C8.49083 11.5127 8.6125 10.7777 8.6125 9.93902C8.6125 9.11077 8.49342 8.38605 8.25527 7.76486C8.01712 7.14367 7.66764 6.65966 7.20687 6.31286C6.74607 5.96602 6.17657 5.7926 5.49834 5.7926C4.79942 5.7926 4.21694 5.97377 3.75098 6.33615C3.28503 6.69849 2.93299 7.19286 2.6948 7.81924C2.46184 8.44558 2.34536 9.1522 2.34536 9.93902C2.34536 10.7362 2.46444 11.4532 2.70259 12.0899C2.94074 12.7266 3.29281 13.2313 3.75877 13.6041C4.22988 13.9716 4.80976 14.1554 5.49834 14.1554Z" fill="white"/>
</svg>
