<svg width="11" height="18" viewBox="0 0 11 18" fill="none" xmlns="http://www.w3.org/2000/svg">
<path d="M0 17.4817V0.155316H2.26792V2.08877H2.46199C2.59664 1.84027 2.79071 1.55297 3.04458 1.22687C3.29807 0.900735 3.65011 0.616032 4.10069 0.372728C4.55089 0.12423 5.14626 0 5.88682 0C6.84965 0 7.70905 0.243304 8.46502 0.729913C9.22099 1.21652 9.81374 1.91795 10.2436 2.83419C10.6784 3.75043 10.8958 4.85303 10.8958 6.142C10.8958 7.43097 10.681 8.53617 10.2512 9.4576C9.82164 10.3739 9.23115 11.0805 8.48044 11.5774C7.72973 12.0692 6.87297 12.3151 5.91013 12.3151C5.18538 12.3151 4.59263 12.1934 4.13153 11.9501C3.67606 11.7068 3.31876 11.4221 3.06 11.096C2.80124 10.7699 2.6019 10.48 2.46199 10.2264H2.32208V17.4817H0ZM2.27544 6.11874C2.27544 6.95734 2.3973 7.69241 2.64064 8.32395C2.88398 8.95549 3.23602 9.44985 3.69675 9.80703C4.15748 10.159 4.72202 10.335 5.3896 10.335C6.08352 10.335 6.66348 10.1513 7.12947 9.78374C7.59547 9.41101 7.9475 8.9063 8.18558 8.26961C8.42892 7.63287 8.5504 6.91591 8.5504 6.11874C8.5504 5.33189 8.43155 4.62527 8.1931 3.99892C7.96029 3.37254 7.60825 2.87818 7.13699 2.51584C6.671 2.15346 6.08879 1.97229 5.3896 1.97229C4.71675 1.97229 4.14732 2.14571 3.68133 2.49254C3.2206 2.83934 2.87082 3.32335 2.63274 3.94454C2.39467 4.56573 2.27544 5.29045 2.27544 6.11874Z" fill="white"/>
</svg>
