<svg width="7" height="13" viewBox="0 0 7 13" fill="none" xmlns="http://www.w3.org/2000/svg">
<path d="M0.0466368 12.1676L1.28026 6.1653L0 0.178612H2.24422V2.07323H2.36872C2.58611 1.43134 2.96936 0.926627 3.51809 0.559092C4.0721 0.186364 4.69832 0 5.3975 0C5.5423 0 5.71305 0.0051933 5.91013 0.0155427C6.11173 0.0258921 6.26969 0.0388387 6.38365 0.0543816V2.27513C6.29038 2.24924 6.12489 2.22075 5.88681 2.1897C5.64836 2.15346 5.41028 2.13536 5.17221 2.13536C4.62347 2.13536 4.13416 2.25184 3.70427 2.48475C3.28002 2.71255 2.9434 3.0309 2.6948 3.43983C2.44619 3.84361 2.32208 4.30433 2.32208 4.82198L2.36872 12.1676H0.0466368Z" fill="white"/>
</svg>
