<svg width="12" height="17" viewBox="0 0 12 17" fill="none" xmlns="http://www.w3.org/2000/svg">
<path d="M9.30348 4.39491C9.22073 3.65984 8.87923 3.09044 8.27859 2.68666C7.67795 2.27769 6.92197 2.07323 6.01086 2.07323C5.35854 2.07323 4.79419 2.17676 4.31789 2.38382C3.84155 2.58569 3.47139 2.86523 3.20736 3.22242C2.94849 3.57445 2.81903 3.97563 2.81903 4.426C2.81903 4.80388 2.90704 5.12998 3.08309 5.40433C3.2643 5.67872 3.49986 5.90908 3.7898 6.09541C4.08489 6.27662 4.40071 6.4293 4.73725 6.55357C5.07379 6.6726 5.39735 6.77098 5.70801 6.84862L7.26122 7.25239C7.76859 7.37662 8.28874 7.54485 8.82206 7.7571C9.35538 7.96936 9.84996 8.24887 10.3054 8.59571C10.7609 8.94254 11.1287 9.37221 11.4082 9.88467C11.6929 10.3972 11.8354 11.0106 11.8354 11.7249C11.8354 12.6257 11.6022 13.4254 11.1362 14.1243C10.6755 14.8231 10.0053 15.3744 9.1252 15.7782C8.25 16.182 7.19127 16.3839 5.94872 16.3839C4.75797 16.3839 3.72767 16.1949 2.85788 15.817C1.9881 15.4391 1.30727 14.9034 0.815398 14.2097C0.323564 13.5109 0.0517522 12.6826 0 11.7249H2.40746C2.45406 12.2995 2.64042 12.7784 2.96661 13.1614C3.29796 13.5393 3.71992 13.8215 4.23244 14.0078C4.75019 14.189 5.31709 14.2796 5.93323 14.2796C6.61131 14.2796 7.21458 14.1735 7.74264 13.9612C8.27595 13.7438 8.69532 13.4436 9.00071 13.0605C9.30611 12.6723 9.45881 12.2193 9.45881 11.7016C9.45881 11.2306 9.32454 10.8449 9.05525 10.5447C8.79122 10.2445 8.43129 9.99596 7.97582 9.79928C7.52525 9.60257 7.01525 9.42915 6.44582 9.27903L4.56638 8.76653C3.29277 8.41969 2.28319 7.90982 1.53767 7.23685C0.797309 6.56392 0.427107 5.67353 0.427107 4.56573C0.427107 3.64949 0.675638 2.84973 1.17266 2.16641C1.66969 1.48308 2.34273 0.952482 3.19183 0.574598C4.04089 0.191558 4.99872 0 6.06524 0C7.142 0 8.09204 0.188961 8.91534 0.566845C9.7439 0.944729 10.3961 1.46498 10.8722 2.12757C11.3487 2.785 11.5974 3.54077 11.618 4.39491H9.30348Z" fill="white"/>
</svg>
