<svg width="11" height="13" viewBox="0 0 11 13" fill="none" xmlns="http://www.w3.org/2000/svg">
<path d="M2.41535 5.00059L2.32208 12.2374H0L0.0932736 0.155316H2.32208V2.09652H2.46951C2.74407 1.46498 3.17358 0.957675 3.7588 0.574598C4.34891 0.191558 5.0921 0 5.98761 0C6.80037 0 7.51235 0.170822 8.12314 0.512502C8.73431 0.848951 9.20783 1.3511 9.54445 2.01888C9.88106 2.68666 10.0492 3.51232 10.0492 4.49588L9.95591 12.2374H7.6342L7.7271 4.77539C7.7271 3.9109 7.50219 3.23537 7.05162 2.74876C6.60104 2.25699 5.98235 2.01109 5.19553 2.01109C4.65695 2.01109 4.17816 2.12757 3.7588 2.36052C3.34471 2.59348 3.01599 2.93512 2.77265 3.38549C2.5342 3.83066 2.41535 4.36906 2.41535 5.00059Z" fill="white"/>
</svg>
