<svg width="3" height="17" viewBox="0 0 3 17" fill="none" xmlns="http://www.w3.org/2000/svg">
<path d="M0.29513 16.1272V4.61232H2.61717L1.46779 10.552L2.61717 16.1272H0.29513ZM1.46779 2.77205C1.06397 2.77205 0.717084 2.63747 0.427144 2.36828C0.142394 2.09392 0 1.76779 0 1.3899C0 1.00683 0.142394 0.680726 0.427144 0.411529C0.717084 0.137176 1.06397 0 1.46779 0C1.87162 0 2.21591 0.137176 2.50066 0.411529C2.7906 0.680726 2.93555 1.00683 2.93555 1.3899C2.93555 1.76779 2.7906 2.09392 2.50066 2.36828C2.21591 2.63747 1.87162 2.77205 1.46779 2.77205Z" fill="white"/>
</svg>
