<svg width="24" height="24" viewBox="0 0 24 24" fill="none" xmlns="http://www.w3.org/2000/svg">
<path d="M8.75 1.75C9.435 1.75 10.0635 2.006 10.521 2.479C10.9785 2.9525 11.25 3.6285 11.25 4.444C11.25 5.2555 10.982 6.07 10.545 6.6865C10.11 7.3 9.48 7.75 8.75 7.75C8.02 7.75 7.39 7.3 6.955 6.6865C6.518 6.07 6.25 5.2555 6.25 4.4445C6.25 3.6285 6.5215 2.9525 6.9795 2.479C7.4365 2.006 8.065 1.75 8.75 1.75ZM3.25 6.25C3.935 6.25 4.5635 6.506 5.021 6.979C5.4785 7.4525 5.75 8.1285 5.75 8.944C5.75 9.7555 5.482 10.57 5.045 11.1865C4.61 11.8 3.98 12.25 3.25 12.25C2.52 12.25 1.89 11.8 1.455 11.1865C1.018 10.57 0.75 9.755 0.75 8.9445C0.75 8.1285 1.0215 7.4525 1.4795 6.979C1.9365 6.506 2.565 6.25 3.25 6.25ZM12 9.75C8.438 9.75 5.487 12.7825 4.558 16.585C4.146 18.272 4.7745 20.0815 6.3245 20.939C7.556 21.621 9.399 22.25 11.9995 22.25C14.6005 22.25 16.4435 21.621 17.6755 20.939C19.225 20.0815 19.8535 18.272 19.4415 16.5855C18.513 12.7825 15.5615 9.75 12 9.75ZM20.75 6.25C20.065 6.25 19.4365 6.506 18.9795 6.979C18.5215 7.4525 18.25 8.1285 18.25 8.944C18.25 9.7555 18.518 10.57 18.955 11.1865C19.39 11.8 20.02 12.25 20.75 12.25C21.48 12.25 22.11 11.8 22.545 11.1865C22.982 10.57 23.25 9.7555 23.25 8.9445C23.25 8.1285 22.9785 7.4525 22.521 6.979C22.0635 6.506 21.435 6.25 20.75 6.25ZM15.25 1.75C14.565 1.75 13.9365 2.006 13.4795 2.479C13.0215 2.9525 12.75 3.6285 12.75 4.444C12.75 5.2555 13.018 6.07 13.455 6.6865C13.89 7.3 14.52 7.75 15.25 7.75C15.98 7.75 16.61 7.3 17.045 6.6865C17.482 6.07 17.75 5.2555 17.75 4.4445C17.75 3.6285 17.4785 2.9525 17.021 2.479C16.5635 2.006 15.935 1.75 15.25 1.75Z" fill="#041133"/>
</svg>
