<svg width="250" height="28" viewBox="0 0 250 28" fill="none" xmlns="http://www.w3.org/2000/svg">
<path d="M72.5636 0L71.981 0C72.2723 0 72.3666 0 72.5636 0Z" fill="black"/>
<path d="M72.5636 0C75.4596 0 77.8072 2.34765 77.8072 5.24364C77.8072 5.44058 77.8284 5.63495 77.8072 5.82627V6.4089C77.8072 14.1315 84.0676 20.3919 91.7903 20.3919L158.21 20.3919C165.932 20.3919 172.193 14.1315 172.193 6.4089V5.82627C172.193 5.53496 172.193 5.44058 172.193 5.24364C172.193 2.34765 174.54 0 177.436 0C177.633 0 177.728 0 178.019 0L177.436 0L72.5636 0Z" fill="black"/>
</svg>
