<svg width="24" height="24" viewBox="0 0 24 24" fill="none" xmlns="http://www.w3.org/2000/svg">
<path d="M11.25 0.84375C11.0625 0.84375 10.875 1.03125 10.5 1.40625V2.90625H8.2253C7.5 2.15625 7.5 2.15625 6.75 2.90625C6 3.65625 6 3.65625 6.75 4.40625C7.5 5.15625 7.5 5.15625 8.19234 4.40625H10.5V5.90625H12V4.40625H14.283C15.0237 5.15625 15.0236 5.15625 15.7736 4.40625C16.5236 3.65625 16.5236 3.65625 15.7736 2.90625C15.0236 2.15625 15.0237 2.15625 14.25 2.90625H12V1.40625C11.625 1.03125 11.4375 0.84375 11.25 0.84375ZM1.5 4.5V16.5H3V4.5H1.5ZM4.5 6.75L3.75 6V15L4.5 14.25V6.75ZM11.25 6.65625C9.75 6.65625 8.98359 6.65625 8.94234 8.15625H5.25V12.6562H8.2793C9 13.4062 9.75 14.1562 11.25 14.1562C12.75 14.1562 13.5 13.4062 14.25 12.6562C17.25 12.6562 17.25 12.6562 17.25 14.1562V15.6562H21.75V12.6562C21.75 9.65625 20.25 8.15625 17.25 8.15625H13.5C13.5164 6.65625 12.75 6.65625 11.25 6.65625ZM16.5 16.4062V17.1562H22.5V16.4062H16.5ZM19.5 17.9062C19.5 17.9062 17.6802 20.3278 18 21.75C18.1978 22.6294 18.5986 23.1562 19.5 23.1562C20.4014 23.1562 20.8022 22.6294 21 21.75C21.3198 20.3278 19.5 17.9062 19.5 17.9062Z" fill="#041133"/>
</svg>
