<svg width="24" height="24" viewBox="0 0 24 24" fill="none" xmlns="http://www.w3.org/2000/svg">
<path d="M22.0585 20.3152C19.9556 19.283 18.75 17.0733 18.75 14.2495V12.6267C18.7508 12.3262 18.661 12.0324 18.4922 11.7837C18.3235 11.535 18.0837 11.343 17.8041 11.2327L15.1181 10.1583C14.9341 10.0846 14.7867 9.94113 14.7082 9.75913C14.6297 9.57714 14.6264 9.37146 14.6991 9.18705L16.7916 3.87424C17.25 2.69861 16.6875 1.33174 15.5006 0.89111C14.9482 0.685649 14.3371 0.705199 13.7989 0.945556C13.2607 1.18591 12.8383 1.62788 12.6225 2.17642L10.5235 7.50705C10.4873 7.59898 10.4333 7.68286 10.3646 7.75386C10.2959 7.82487 10.2138 7.8816 10.1232 7.9208C10.0325 7.96 9.93494 7.9809 9.83615 7.98229C9.73736 7.98369 9.63927 7.96555 9.54752 7.92892L6.85408 6.8508C6.57915 6.73951 6.27729 6.71271 5.98706 6.77383C5.69682 6.83495 5.4314 6.98121 5.22471 7.19392C3.25127 9.22455 2.25002 11.5974 2.25002 14.2495C2.24486 16.9592 3.29185 19.5651 5.17033 21.518C5.2413 21.5917 5.32651 21.6502 5.42078 21.6901C5.51506 21.7299 5.61644 21.7501 5.71877 21.7495H21.75C21.9412 21.7499 22.1253 21.6772 22.2647 21.5464C22.4041 21.4155 22.4883 21.2363 22.5 21.0455C22.5067 20.8938 22.4683 20.7435 22.3897 20.6135C22.3112 20.4836 22.1959 20.3798 22.0585 20.3152ZM10.7916 20.2495C9.68194 19.185 8.89385 17.8301 8.51721 16.3392C8.47176 16.1514 8.35735 15.9876 8.1967 15.8803C8.03605 15.773 7.8409 15.73 7.65002 15.7599C7.54835 15.7782 7.45158 15.8174 7.36576 15.8749C7.27994 15.9324 7.20693 16.007 7.1513 16.0941C7.09567 16.1811 7.05863 16.2787 7.04249 16.3808C7.02635 16.4828 7.03147 16.5871 7.05752 16.687C7.38498 17.9785 7.97049 19.1904 8.77877 20.2495H6.04127C4.56268 18.6012 3.74651 16.4639 3.75002 14.2495C3.74071 13.0759 3.98804 11.9144 4.47471 10.8464L17.3935 16.0149C17.6747 17.708 18.3825 19.1555 19.4456 20.2514L10.7916 20.2495Z" fill="#041133"/>
</svg>
