<svg width="24" height="24" viewBox="0 0 24 24" fill="none" xmlns="http://www.w3.org/2000/svg">
<path d="M21.6701 18.1704L16.9501 13.4504C16.4701 12.9704 15.9601 12.8604 15.3701 12.8604L12.8301 15.4004C12.8301 15.9904 12.9401 16.5104 13.4201 16.9804L18.1401 21.7004C18.5301 22.0904 19.1601 22.0904 19.5501 21.7004L21.6701 19.5804C21.7628 19.4878 21.8363 19.3779 21.8865 19.257C21.9367 19.136 21.9625 19.0063 21.9625 18.8754C21.9625 18.7444 21.9367 18.6147 21.8865 18.4937C21.8363 18.3728 21.7628 18.2629 21.6701 18.1704Z" fill="#041133"/>
<path d="M16.63 9.49043C17.02 9.88043 17.65 9.88043 18.04 9.49043L18.75 8.78043L20.87 10.9004C21.4318 10.3379 21.7474 9.57544 21.7474 8.78043C21.7474 7.98543 21.4318 7.22293 20.87 6.66043L18.04 3.83043C17.9475 3.73773 17.8376 3.66418 17.7166 3.614C17.5957 3.56382 17.466 3.53799 17.335 3.53799C17.204 3.53799 17.0744 3.56382 16.9534 3.614C16.8324 3.66418 16.7225 3.73773 16.63 3.83043L15.92 4.54043V2.00043C15.92 1.38043 15.16 1.05043 14.71 1.50043L12.17 4.04043C11.72 4.49043 12.05 5.25043 12.67 5.25043H15.21L14.5 5.96043C14.4073 6.05295 14.3338 6.16284 14.2836 6.28381C14.2334 6.40478 14.2076 6.53446 14.2076 6.66543C14.2076 6.7964 14.2334 6.92608 14.2836 7.04706C14.3338 7.16803 14.4073 7.27792 14.5 7.37043L14.85 7.72043L11.96 10.6104L7.85 6.48043V5.48043C7.85 5.21043 7.74 4.96043 7.56 4.77043L5.54 2.74043C5.44749 2.64773 5.3376 2.57418 5.21663 2.524C5.09565 2.47382 4.96597 2.44799 4.835 2.44799C4.70403 2.44799 4.57435 2.47382 4.45338 2.524C4.33241 2.57418 4.22252 2.64773 4.13 2.74043L2.71 4.16043C2.6173 4.25295 2.54375 4.36284 2.49357 4.48381C2.44339 4.60478 2.41756 4.73447 2.41756 4.86543C2.41756 4.9964 2.44339 5.12608 2.49357 5.24706C2.54375 5.36803 2.6173 5.47792 2.71 5.57043L4.73 7.60043C4.92 7.79043 5.17 7.89043 5.44 7.89043H6.44L10.57 12.0204L9.72 12.8704H8.42C7.89 12.8704 7.38 13.0804 7.01 13.4604L2.29 18.1804C2.1973 18.2729 2.12375 18.3828 2.07357 18.5038C2.02339 18.6248 1.99756 18.7545 1.99756 18.8854C1.99756 19.0164 2.02339 19.1461 2.07357 19.2671C2.12375 19.388 2.1973 19.4979 2.29 19.5904L4.41 21.7104C4.8 22.1004 5.43 22.1004 5.82 21.7104L10.54 16.9904C10.92 16.6104 11.13 16.1104 11.13 15.5804V14.2904L16.28 9.14043L16.63 9.49043Z" fill="#041133"/>
</svg>
