<svg width="196" height="22" viewBox="0 0 196 22" fill="none" xmlns="http://www.w3.org/2000/svg">
<path d="M56.9536 0L56.4976 0C56.7256 0 56.7995 0 56.9536 0Z" fill="black"/>
<path d="M56.9536 0C59.2206 0 61.0583 1.8377 61.0583 4.10464C61.0583 4.2588 61.0748 4.41095 61.0583 4.56071V5.01678C61.0583 11.0619 65.9588 15.9625 72.004 15.9625L123.996 15.9625C130.041 15.9625 134.942 11.0619 134.942 5.01678V4.56071C134.942 4.33267 134.942 4.2588 134.942 4.10464C134.942 1.8377 136.779 0 139.046 0C139.201 0 139.274 0 139.502 0L139.046 0L56.9536 0Z" fill="black"/>
</svg>
