<svg width="24" height="24" viewBox="0 0 24 24" fill="none" xmlns="http://www.w3.org/2000/svg">
<path d="M21.4923 1.24337C21.0798 1.24899 20.6439 1.37837 20.3158 1.56399C19.7298 1.89306 19.2376 2.91024 18.9564 3.58478C18.5183 3.33606 18.0536 3.19084 17.6076 3.16324C17.1616 3.13565 16.7494 3.2266 16.4111 3.42728L20.5736 7.59353C20.7748 7.25463 20.8658 6.84159 20.8379 6.39468C20.81 5.94778 20.664 5.48226 20.4142 5.04353C21.0892 4.76696 22.1064 4.26915 22.4345 3.68556C22.7861 3.07103 22.9361 2.06462 22.4345 1.56399C22.2001 1.32962 21.8579 1.23821 21.4923 1.24337ZM15.5439 3.75212L14.0158 5.2779L18.722 9.98415L20.2501 8.46071L15.5439 3.75212ZM12.6845 5.74665C12.0517 5.73259 11.1423 6.0279 10.0079 7.16696L1.51982 15.656C1.35389 15.8201 1.24561 16.1107 1.24561 16.4154C1.24561 16.7201 1.35389 17.0107 1.51982 17.1748L6.82514 22.481C6.9892 22.6498 7.27982 22.7576 7.5892 22.7576C7.89389 22.7576 8.18451 22.6498 8.34857 22.481L8.57826 22.2467L7.2892 20.9576L7.8892 20.3576L9.17826 21.6467L10.1673 20.6576L8.87826 19.3685L9.47826 18.7685L10.7673 20.0576L11.7611 19.0685L9.40795 16.7154L10.0079 16.1154L12.3611 18.4685L13.3501 17.4748L12.0611 16.1857L12.6611 15.5857L13.9501 16.8748L14.9439 15.8857L13.6501 14.592L14.2501 13.992L15.5439 15.2857L16.5329 14.292L14.1798 11.9435L14.7798 11.3435L17.1236 13.6826C18.7923 11.8451 18.2064 10.6592 17.8923 10.3498L13.6501 6.10759C13.5048 5.96228 13.1767 5.76071 12.6845 5.74665Z" fill="#041133"/>
</svg>
