<svg width="3" height="13" viewBox="0 0 3 13" fill="none" xmlns="http://www.w3.org/2000/svg">
<path d="M0.222401 12.1459V3.47368H1.97222L1.10609 7.94703L1.97222 12.1459H0.222401ZM1.10609 2.08772C0.801774 2.08772 0.540374 1.98636 0.321883 1.78362C0.107304 1.577 0 1.33137 0 1.04678C0 0.758271 0.107304 0.512675 0.321883 0.309935C0.540374 0.103312 0.801774 0 1.10609 0C1.4104 0 1.66984 0.103312 1.88442 0.309935C2.10291 0.512675 2.21214 0.758271 2.21214 1.04678C2.21214 1.33137 2.10291 1.577 1.88442 1.78362C1.66984 1.98636 1.4104 2.08772 1.10609 2.08772Z" fill="black"/>
</svg>
