<svg width="8" height="17" viewBox="0 0 8 17" fill="none" xmlns="http://www.w3.org/2000/svg">
<path d="M7.02624 3.0796V5.08802H0V3.0796H7.02624ZM1.88432 0H4.38836V12.1594C4.38836 12.6447 4.46096 13.0101 4.60575 13.2556C4.75095 13.4955 4.93832 13.6601 5.16707 13.7493C5.40149 13.833 5.65538 13.8749 5.92915 13.8749C6.12991 13.8749 6.30593 13.8609 6.45681 13.833C6.60728 13.8051 6.7249 13.7828 6.80845 13.7661L7.26067 15.8331C7.11547 15.8889 6.90903 15.9446 6.64094 16.0005C6.37285 16.0618 6.03784 16.0953 5.63592 16.1009C4.97726 16.112 4.36321 15.9949 3.79378 15.7494C3.22394 15.5039 2.76361 15.1245 2.41197 14.6113C2.05993 14.098 1.88432 13.4536 1.88432 12.6782V0Z" fill="black"/>
</svg>
