<svg width="7" height="14" viewBox="0 0 7 14" fill="none" xmlns="http://www.w3.org/2000/svg">
<path d="M0.0502913 13.1134L1.38059 6.64453L0 0.192495H2.42008V2.23438H2.55433C2.78876 1.5426 3.20204 0.998655 3.79378 0.602551C4.39119 0.20085 5.06649 0 5.82046 0C5.9766 0 6.16074 0.00559698 6.37326 0.0167508C6.59065 0.0279047 6.76099 0.0418576 6.88388 0.0586087V2.45198C6.7833 2.42408 6.60484 2.39337 6.34811 2.35991C6.09097 2.32085 5.83424 2.30134 5.57751 2.30134C4.98577 2.30134 4.45812 2.42687 3.99454 2.6779C3.53705 2.9234 3.17405 3.2665 2.90597 3.70721C2.63788 4.14238 2.50404 4.63891 2.50404 5.1968L2.55433 13.1134H0.0502913Z" fill="black"/>
</svg>
