<svg width="24" height="24" viewBox="0 0 24 24" fill="none" xmlns="http://www.w3.org/2000/svg">
<path fill-rule="evenodd" clip-rule="evenodd" d="M3 9C3 8.80109 3.07902 8.61032 3.21967 8.46967C3.36032 8.32902 3.55109 8.25 3.75 8.25H20.25C20.4489 8.25 20.6397 8.32902 20.7803 8.46967C20.921 8.61032 21 8.80109 21 9C21 9.19891 20.921 9.38968 20.7803 9.53033C20.6397 9.67098 20.4489 9.75 20.25 9.75H3.75C3.55109 9.75 3.36032 9.67098 3.21967 9.53033C3.07902 9.38968 3 9.19891 3 9ZM3 15.75C3 15.5511 3.07902 15.3603 3.21967 15.2197C3.36032 15.079 3.55109 15 3.75 15H20.25C20.4489 15 20.6397 15.079 20.7803 15.2197C20.921 15.3603 21 15.5511 21 15.75C21 15.9489 20.921 16.1397 20.7803 16.2803C20.6397 16.421 20.4489 16.5 20.25 16.5H3.75C3.55109 16.5 3.36032 16.421 3.21967 16.2803C3.07902 16.1397 3 15.9489 3 15.75Z" fill="#052F88"/>
</svg>
