<svg width="5" height="10" viewBox="0 0 5 10" fill="none" xmlns="http://www.w3.org/2000/svg">
<path d="M0.0351441 9.16376L0.964768 4.64327L0 0.134518H1.69118V1.56141H1.785C1.94881 1.07798 2.23762 0.697871 2.65113 0.421069C3.06861 0.140357 3.54052 0 4.0674 0C4.17652 0 4.30519 0.00391123 4.4537 0.0117057C4.60562 0.0195001 4.72466 0.0292506 4.81053 0.0409564V1.71347C4.74024 1.69397 4.61554 1.67252 4.43613 1.64913C4.25644 1.62184 4.07703 1.6082 3.89763 1.6082C3.48411 1.6082 3.11538 1.69593 2.79143 1.87134C2.47173 2.04291 2.21806 2.28266 2.03072 2.59064C1.84338 2.89474 1.74985 3.24172 1.74985 3.63158L1.785 9.16376H0.0351441Z" fill="black"/>
</svg>
