<svg width="9" height="13" viewBox="0 0 9 13" fill="none" xmlns="http://www.w3.org/2000/svg">
<path d="M7.01083 3.30994C6.94848 2.75634 6.69113 2.3275 6.2385 2.02341C5.78587 1.7154 5.2162 1.56141 4.5296 1.56141C4.03804 1.56141 3.61276 1.63938 3.25383 1.79533C2.89488 1.94736 2.61594 2.1579 2.41697 2.4269C2.22189 2.69203 2.12434 2.99417 2.12434 3.33335C2.12434 3.61795 2.19066 3.86354 2.32333 4.07017C2.45988 4.27682 2.63739 4.45031 2.85588 4.59064C3.07825 4.72711 3.31624 4.8421 3.56985 4.93569C3.82346 5.02534 4.06729 5.09943 4.30139 5.1579L5.47185 5.462C5.85418 5.55556 6.24616 5.68225 6.64805 5.84211C7.04994 6.00197 7.42264 6.21247 7.76587 6.47369C8.10909 6.7349 8.38628 7.0585 8.59686 7.44445C8.81141 7.83043 8.91883 8.2924 8.91883 8.83041C8.91883 9.50878 8.74311 10.1111 8.39195 10.6374C8.04475 11.1638 7.5397 11.579 6.87649 11.8831C6.21696 12.1871 5.41913 12.3392 4.48278 12.3392C3.58547 12.3392 2.80906 12.1969 2.15362 11.9123C1.49817 11.6277 0.98512 11.2242 0.61446 10.7018C0.243828 10.1754 0.038999 9.55167 0 8.83041H1.81419C1.84931 9.26316 1.98974 9.6238 2.23555 9.91228C2.48525 10.1969 2.80322 10.4094 3.18944 10.5497C3.5796 10.6862 4.0068 10.7544 4.47111 10.7544C4.98209 10.7544 5.4367 10.6745 5.83462 10.5146C6.23652 10.3509 6.55254 10.1248 6.78268 9.83626C7.01281 9.54387 7.12788 9.20273 7.12788 8.81287C7.12788 8.45809 7.0267 8.16766 6.82377 7.94153C6.62481 7.71541 6.35357 7.52826 6.01035 7.38014C5.67081 7.23199 5.28649 7.10138 4.85738 6.98832L3.44109 6.60234C2.48134 6.34113 1.72055 5.95713 1.15875 5.45029C0.600829 4.94348 0.321855 4.27291 0.321855 3.43859C0.321855 2.74854 0.509141 2.14622 0.883684 1.63159C1.25823 1.11696 1.76541 0.717343 2.40527 0.432747C3.04509 0.144268 3.76689 0 4.57059 0C5.382 0 6.09792 0.142312 6.71834 0.426908C7.34272 0.711504 7.83417 1.10332 8.19299 1.60234C8.55208 2.09747 8.73942 2.66666 8.75501 3.30994H7.01083Z" fill="black"/>
</svg>
