<svg width="11" height="14" viewBox="0 0 11 14" fill="none" xmlns="http://www.w3.org/2000/svg">
<path d="M2.60462 5.3893L2.50404 13.1887H0L0.100583 0.167389H2.50404V2.25949H2.66303C2.9591 1.57886 3.42227 1.03212 4.05335 0.619262C4.6897 0.206448 5.49112 0 6.45681 0C7.33326 0 8.10102 0.1841 8.75968 0.552339C9.41875 0.91494 9.92937 1.45612 10.2924 2.17581C10.6554 2.8955 10.8366 3.78533 10.8366 4.84535L10.7361 13.1887H8.23243L8.33261 5.14659C8.33261 4.2149 8.09007 3.48686 7.60419 2.96242C7.11831 2.43243 6.45113 2.16742 5.60266 2.16742C5.02187 2.16742 4.50557 2.29295 4.05335 2.54401C3.60681 2.79507 3.25233 3.16327 2.98992 3.64865C2.73279 4.12842 2.60462 4.70867 2.60462 5.3893Z" fill="black"/>
</svg>
