<svg width="4" height="18" viewBox="0 0 4 18" fill="none" xmlns="http://www.w3.org/2000/svg">
<path d="M0.318257 17.3807V4.97084H2.82226L1.58281 11.3722L2.82226 17.3807H0.318257ZM1.58281 2.98753C1.14734 2.98753 0.773276 2.84249 0.460615 2.55237C0.153552 2.25669 0 1.9052 0 1.49794C0 1.08509 0.153552 0.733639 0.460615 0.443517C0.773276 0.147839 1.14734 0 1.58281 0C2.01828 0 2.38955 0.147839 2.69661 0.443517C3.00927 0.733639 3.16558 1.08509 3.16558 1.49794C3.16558 1.9052 3.00927 2.25669 2.69661 2.55237C2.38955 2.84249 2.01828 2.98753 1.58281 2.98753Z" fill="black"/>
</svg>
