<svg width="13" height="18" viewBox="0 0 13 18" fill="none" xmlns="http://www.w3.org/2000/svg">
<path d="M10.0325 4.73653C9.94328 3.94432 9.57502 3.33066 8.92731 2.8955C8.2796 2.45474 7.46439 2.23438 6.48187 2.23438C5.77844 2.23438 5.16987 2.34596 4.65624 2.56912C4.14258 2.78668 3.74341 3.08795 3.45869 3.4729C3.17953 3.8523 3.03993 4.28466 3.03993 4.77003C3.03993 5.17729 3.13484 5.52874 3.32469 5.82442C3.5201 6.12014 3.77411 6.3684 4.08677 6.56921C4.40499 6.7645 4.74555 6.92905 5.10846 7.06298C5.47138 7.19127 5.82029 7.29729 6.1553 7.38097L7.83022 7.81613C8.37735 7.95002 8.93826 8.13132 9.51337 8.36007C10.0885 8.58883 10.6218 8.89006 11.113 9.26386C11.6041 9.63766 12.0008 10.1007 12.3021 10.653C12.6092 11.2054 12.7629 11.8664 12.7629 12.6363C12.7629 13.6071 12.5114 14.469 12.0089 15.2222C11.5121 15.9754 10.7893 16.5695 9.84027 17.0047C8.89648 17.4398 7.75478 17.6574 6.41487 17.6574C5.13081 17.6574 4.01977 17.4538 3.08183 17.0465C2.14389 16.6392 1.40971 16.0618 0.879294 15.3142C0.348919 14.5611 0.0558076 13.6685 0 12.6363H2.59611C2.64636 13.2556 2.84732 13.7717 3.19908 14.1845C3.5564 14.5917 4.01142 14.8958 4.5641 15.0967C5.12242 15.2919 5.73374 15.3896 6.39816 15.3896C7.12938 15.3896 7.77993 15.2752 8.34936 15.0465C8.92447 14.8121 9.37669 14.4886 9.70602 14.0757C10.0354 13.6573 10.2 13.1691 10.2 12.6112C10.2 12.1035 10.0552 11.6879 9.76483 11.3644C9.48011 11.0408 9.09198 10.773 8.60082 10.561C8.11494 10.349 7.56497 10.1621 6.95092 10.0003L4.92421 9.44796C3.5508 9.07416 2.46211 8.52466 1.65817 7.79938C0.859787 7.07414 0.460576 6.11454 0.460576 4.92063C0.460576 3.93317 0.728582 3.07124 1.26455 2.3348C1.80053 1.59837 2.52631 1.02652 3.44194 0.619262C4.35753 0.206448 5.39042 0 6.54052 0C7.70165 0 8.72614 0.203649 9.61395 0.610906C10.5074 1.01816 11.2107 1.57886 11.7242 2.29295C12.238 3.00148 12.5061 3.81599 12.5284 4.73653H10.0325Z" fill="black"/>
</svg>
