<svg width="9" height="14" viewBox="0 0 9 14" fill="none" xmlns="http://www.w3.org/2000/svg">
<path d="M0 13.166V0.116973H1.70904V1.57311H1.85528C1.95675 1.38596 2.10299 1.16959 2.29431 0.923995C2.48533 0.678371 2.75062 0.463953 3.09016 0.280713C3.42942 0.0935613 3.87807 0 4.43613 0C5.16169 0 5.80931 0.18324 6.37899 0.54972C6.94867 0.9162 7.39535 1.44446 7.7193 2.13451C8.04694 2.82456 8.21075 3.65496 8.21075 4.62573C8.21075 5.59649 8.04892 6.42885 7.72497 7.12281C7.4013 7.81288 6.95633 8.34503 6.39061 8.71931C5.8249 9.08967 5.17927 9.27486 4.4537 9.27486C3.90755 9.27486 3.46087 9.18326 3.1134 9.00002C2.77017 8.81678 2.50092 8.60236 2.30593 8.35674C2.11093 8.11111 1.96072 7.89278 1.85528 7.70178H1.74985V13.166H0ZM1.71471 4.60821C1.71471 5.23979 1.80654 5.79339 1.98991 6.26902C2.17328 6.74465 2.43857 7.11697 2.78576 7.38597C3.13296 7.65107 3.55837 7.78363 4.06145 7.78363C4.58436 7.78363 5.0214 7.64523 5.37256 7.36843C5.72372 7.08772 5.98901 6.7076 6.16841 6.22809C6.35179 5.74855 6.44333 5.20858 6.44333 4.60821C6.44333 4.01561 6.35377 3.48343 6.17408 3.01171C5.99864 2.53996 5.73336 2.16765 5.37823 1.89476C5.02707 1.62184 4.58833 1.48539 4.06145 1.48539C3.55441 1.48539 3.1253 1.616 2.77414 1.87721C2.42695 2.13839 2.16337 2.50292 1.98396 2.97076C1.80455 3.43859 1.71471 3.9844 1.71471 4.60821Z" fill="black"/>
</svg>
