<svg width="9" height="13" viewBox="0 0 9 13" fill="none" xmlns="http://www.w3.org/2000/svg">
<path d="M3.75714 12.1521C3.03146 12.1521 2.38381 11.9669 1.81419 11.5965C1.24848 11.2222 0.803729 10.6901 0.479891 10C0.159963 9.30604 0 8.47368 0 7.50292C0 6.53216 0.16192 5.70175 0.485758 5.01171C0.81348 4.32166 1.26214 3.79339 1.83176 3.42691C2.40138 3.06043 3.04708 2.87719 3.76884 2.87719C4.32676 2.87719 4.77542 2.97076 5.11487 3.15791C5.45818 3.34115 5.72349 3.55557 5.91075 3.80119C6.10195 4.04678 6.25021 4.26316 6.35553 4.45031H6.46087V0H8.2107V11.9766H6.50183V10.5789H6.35553C6.25021 10.77 6.09804 10.9883 5.89905 11.2339C5.70399 11.4796 5.43477 11.694 5.09146 11.8772C4.74812 12.0604 4.30335 12.1521 3.75714 12.1521ZM4.14338 10.6608C4.64669 10.6608 5.07193 10.5283 5.41918 10.2632C5.77031 9.99416 6.0356 9.62184 6.21509 9.14621C6.39844 8.67058 6.49012 8.11698 6.49012 7.48538C6.49012 6.86159 6.40039 6.31579 6.22093 5.84795C6.04147 5.38011 5.77811 5.01559 5.43089 4.75441C5.08364 4.49319 4.65448 4.36259 4.14338 4.36259C3.6167 4.36259 3.17776 4.49903 2.82663 4.77195C2.4755 5.04484 2.21021 5.41716 2.03072 5.88891C1.85517 6.36062 1.76739 6.8928 1.76739 7.48538C1.76739 8.08577 1.85713 8.62574 2.03659 9.10529C2.21605 9.5848 2.48136 9.96491 2.8325 10.2456C3.18751 10.5224 3.62449 10.6608 4.14338 10.6608Z" fill="black"/>
</svg>
