<svg width="12" height="18" viewBox="0 0 12 18" fill="none" xmlns="http://www.w3.org/2000/svg">
<path d="M5.37647 17.3896C4.33803 17.3896 3.41124 17.1246 2.59611 16.5946C1.78657 16.059 1.15014 15.2975 0.686724 14.31C0.228907 13.317 0 12.1259 0 10.7367C0 9.34753 0.231707 8.15922 0.695121 7.17176C1.16409 6.1843 1.80612 5.42835 2.62125 4.90392C3.43638 4.37949 4.36037 4.11727 5.39322 4.11727C6.1916 4.11727 6.83363 4.25116 7.31939 4.51897C7.81067 4.78119 8.19033 5.08802 8.4583 5.43951C8.7319 5.79096 8.94406 6.10059 9.09477 6.3684H9.24553V0H11.7495V17.1386H9.30413V15.1385H9.09477C8.94406 15.4119 8.7263 15.7243 8.44155 16.0758C8.16243 16.4273 7.77717 16.7341 7.28589 16.9963C6.79457 17.2585 6.1581 17.3896 5.37647 17.3896ZM5.92919 15.2557C6.64942 15.2557 7.25795 15.066 7.75486 14.6866C8.25733 14.3017 8.63695 13.7689 8.89381 13.0882C9.15618 12.4076 9.28738 11.6154 9.28738 10.7116C9.28738 9.81896 9.15897 9.0379 8.90216 8.36843C8.64535 7.69895 8.26849 7.17732 7.77161 6.80356C7.2747 6.42977 6.66057 6.24287 5.92919 6.24287C5.17551 6.24287 4.54739 6.43812 4.04492 6.82867C3.54244 7.21918 3.16282 7.75196 2.90597 8.42704C2.65475 9.10207 2.52915 9.86361 2.52915 10.7116C2.52915 11.5708 2.65755 12.3435 2.91437 13.0297C3.17118 13.7159 3.55084 14.2598 4.05331 14.6615C4.56134 15.0576 5.18666 15.2557 5.92919 15.2557Z" fill="black"/>
</svg>
