<svg width="12" height="19" viewBox="0 0 12 19" fill="none" xmlns="http://www.w3.org/2000/svg">
<path d="M0 18.8406V0.167389H2.44564V2.25113H2.65491C2.80011 1.98332 3.00939 1.67369 3.28316 1.32224C3.55652 0.97075 3.93614 0.663917 4.42202 0.4017C4.9075 0.133886 5.54953 0 6.34811 0C7.38639 0 8.31314 0.262216 9.12835 0.78665C9.94356 1.31108 10.5828 2.06703 11.0463 3.05449C11.5152 4.04195 11.7496 5.23026 11.7496 6.61942C11.7496 8.00858 11.518 9.19969 11.0544 10.1927C10.5913 11.1803 9.95452 11.9418 9.14498 12.4773C8.33545 13.0073 7.41154 13.2723 6.37326 13.2723C5.59171 13.2723 4.95252 13.1413 4.45528 12.879C3.96412 12.6168 3.57882 12.31 3.29979 11.9585C3.02075 11.607 2.80579 11.2946 2.65491 11.0213H2.50404V18.8406H0ZM2.45375 6.59436C2.45375 7.49814 2.58516 8.29035 2.84756 8.97098C3.10997 9.65161 3.4896 10.1844 3.98643 10.5693C4.48327 10.9487 5.09204 11.1384 5.81194 11.1384C6.56023 11.1384 7.18564 10.9403 7.68815 10.5442C8.19066 10.1425 8.57028 9.5986 8.82701 8.91241C9.08942 8.22619 9.22042 7.45349 9.22042 6.59436C9.22042 5.74634 9.09226 4.9848 8.83512 4.30977C8.58407 3.63469 8.20445 3.10191 7.69626 2.7114C7.19375 2.32085 6.56591 2.1256 5.81194 2.1256C5.08636 2.1256 4.47231 2.3125 3.9698 2.68629C3.47297 3.06005 3.09578 3.58168 2.83905 4.25116C2.58232 4.92063 2.45375 5.70168 2.45375 6.59436Z" fill="black"/>
</svg>
