<svg width="8" height="10" viewBox="0 0 8 10" fill="none" xmlns="http://www.w3.org/2000/svg">
<path d="M1.82014 3.7661L1.74985 9.21639H0L0.0702883 0.116973H1.74985V1.57895H1.86095C2.06785 1.10332 2.39152 0.721254 2.83252 0.432747C3.27721 0.144268 3.83726 0 4.51209 0C5.12456 0 5.66108 0.128651 6.12136 0.385981C6.58192 0.639371 6.93875 1.01756 7.19242 1.52048C7.44608 2.02341 7.57277 2.64523 7.57277 3.38599L7.50248 9.21639H5.75291L5.82292 3.59649C5.82292 2.94542 5.65343 2.43665 5.31389 2.07017C4.97435 1.69981 4.50812 1.51461 3.9152 1.51461C3.50934 1.51461 3.14854 1.60234 2.83252 1.77778C2.52048 1.95323 2.27277 2.21053 2.08939 2.54971C1.9097 2.88499 1.82014 3.29047 1.82014 3.7661Z" fill="black"/>
</svg>
