<svg width="6" height="12" viewBox="0 0 6 12" fill="none" xmlns="http://www.w3.org/2000/svg">
<path d="M4.91001 2.15206V3.55556H0V2.15206H4.91001ZM1.31678 0H3.06663V8.49709C3.06663 8.83625 3.11737 9.09162 3.21855 9.26316C3.32001 9.43081 3.45095 9.54583 3.6108 9.60818C3.77462 9.66668 3.95204 9.6959 4.14335 9.6959C4.28365 9.6959 4.40665 9.68615 4.51209 9.66668C4.61724 9.64718 4.69943 9.63159 4.75782 9.61989L5.07383 11.0643C4.97237 11.1033 4.8281 11.1423 4.64076 11.1813C4.45342 11.2242 4.21931 11.2476 3.93844 11.2515C3.47816 11.2593 3.04906 11.1774 2.65114 11.0059C2.25293 10.8343 1.93124 10.5692 1.68551 10.2105C1.4395 9.85185 1.31678 9.40156 1.31678 8.85966V0Z" fill="black"/>
</svg>
