<svg width="20" height="24" viewBox="0 0 20 24" fill="none" xmlns="http://www.w3.org/2000/svg">
<path fill-rule="evenodd" clip-rule="evenodd" d="M14.4609 15.8324L2.20117 22.7133C1.65298 23.0203 1.15062 23.0713 0.764648 22.9096L11.1943 12.6078L14.4609 15.8324ZM10.5781 11.9984L0.158203 22.2904C0.0568286 22.0624 0 21.7834 0 21.4584V2.54139C2.37267e-05 2.21672 0.0567148 1.9376 0.158203 1.70936L10.5781 11.9984ZM19.0918 10.766C20.3018 11.4452 20.3018 12.5557 19.0918 13.2357L15.248 15.392L11.8115 11.9984L15.2451 8.60682L19.0918 10.766ZM0.764648 1.08925C1.15066 0.927991 1.65348 0.980155 2.20117 1.28749L14.459 8.16639L11.1953 11.39L0.764648 1.08925Z" fill="white"/>
</svg>
