<svg width="23" height="28" viewBox="0 0 23 28" fill="none" xmlns="http://www.w3.org/2000/svg">
<path d="M18.8522 14.3326C18.8798 12.416 20.0299 10.6024 21.8545 9.59853C20.7035 8.12733 18.7755 7.19454 16.7697 7.13838C14.6303 6.93741 12.5562 8.28407 11.466 8.28407C10.3547 8.28407 8.67619 7.15833 6.86869 7.19162C4.51269 7.25974 2.3163 8.45851 1.17006 10.3019C-1.29391 14.1197 0.543988 19.7306 2.90427 22.8166C4.08516 24.3278 5.4653 26.0158 7.27117 25.9559C9.03832 25.8903 9.69832 24.9474 11.8314 24.9474C13.9447 24.9474 14.564 25.9559 16.4065 25.9178C18.3027 25.8903 19.4974 24.4 20.6369 22.8745C21.4854 21.7978 22.1383 20.6078 22.5714 19.3485C20.343 18.505 18.8548 16.498 18.8522 14.3326Z" fill="white"/>
<path d="M15.372 5.10885C16.4059 3.99808 16.9153 2.57036 16.7919 1.12891C15.2123 1.27738 13.7532 1.95301 12.7054 3.02117C11.6807 4.06481 11.1474 5.46741 11.2482 6.85377C12.8284 6.86833 14.3818 6.21102 15.372 5.10885Z" fill="white"/>
</svg>
