<svg width="12" height="20" viewBox="0 0 12 20" fill="none" xmlns="http://www.w3.org/2000/svg">
<path d="M0 19.1344V0.169999H2.48233V2.28623H2.69474C2.84212 2.01424 3.05453 1.69979 3.33241 1.34286C3.60987 0.985888 3.99519 0.674271 4.48836 0.407965C4.98112 0.135974 5.63278 0 6.44334 0C7.4972 0 8.43784 0.266306 9.26529 0.798917C10.0927 1.33153 10.7415 2.09926 11.212 3.10212C11.6879 4.10498 11.9259 5.31183 11.9259 6.72265C11.9259 8.13347 11.6908 9.34316 11.2203 10.3517C10.7502 11.3546 10.1038 12.128 9.28217 12.6719C8.46049 13.2102 7.52272 13.4793 6.46886 13.4793C5.67559 13.4793 5.02681 13.3462 4.52211 13.0799C4.02359 12.8136 3.63251 12.502 3.34929 12.145C3.06606 11.788 2.84788 11.4707 2.69474 11.1931H2.5416V19.1344H0ZM2.49056 6.69719C2.49056 7.61507 2.62394 8.41963 2.89028 9.11088C3.15663 9.80212 3.54195 10.3432 4.04623 10.7342C4.55052 11.1194 5.16842 11.3121 5.89913 11.3121C6.65864 11.3121 7.29343 11.111 7.80348 10.7087C8.31353 10.3007 8.69884 9.74828 8.95942 9.0514C9.22577 8.35447 9.35873 7.56972 9.35873 6.69719C9.35873 5.83595 9.22865 5.06253 8.96765 4.37697C8.71284 3.69138 8.32752 3.15028 7.81171 2.75368C7.30166 2.35704 6.66441 2.15875 5.89913 2.15875C5.16266 2.15875 4.5394 2.34856 4.02935 2.72818C3.52507 3.10777 3.14222 3.63754 2.88164 4.31745C2.62106 4.99737 2.49056 5.7906 2.49056 6.69719Z" fill="white"/>
</svg>
