<svg width="7" height="14" viewBox="0 0 7 14" fill="none" xmlns="http://www.w3.org/2000/svg">
<path d="M0.0510457 13.3179L1.4013 6.74815L0 0.195497H2.45639V2.26922H2.59265C2.83059 1.56665 3.25007 1.01423 3.85069 0.611948C4.45707 0.203983 5.14249 0 5.90777 0C6.06626 0 6.25315 0.00568426 6.46886 0.017012C6.68952 0.0283398 6.86241 0.0425104 6.98715 0.0595227V2.49022C6.88505 2.46188 6.70392 2.4307 6.44334 2.39671C6.18234 2.35704 5.92176 2.33723 5.66118 2.33723C5.06056 2.33723 4.52499 2.46472 4.05446 2.71966C3.59011 2.96899 3.22167 3.31744 2.94956 3.76503C2.67745 4.20697 2.5416 4.71125 2.5416 5.27784L2.59265 13.3179H0.0510457Z" fill="white"/>
</svg>
