<svg width="10" height="12" viewBox="0 0 10 12" fill="none" xmlns="http://www.w3.org/2000/svg">
<path d="M7.79399 5.92557C7.8054 5.13317 8.2809 4.38339 9.03523 3.96836C8.55936 3.36013 7.76229 2.97449 6.93302 2.95127C6.04854 2.86818 5.19107 3.42493 4.74035 3.42493C4.28091 3.42493 3.58696 2.95952 2.83969 2.97328C1.86566 3.00144 0.95762 3.49704 0.483733 4.25915C-0.534937 5.83753 0.224899 8.15722 1.2007 9.43307C1.68891 10.0578 2.2595 10.7557 3.00609 10.7309C3.73668 10.7038 4.00954 10.314 4.89142 10.314C5.76512 10.314 6.02112 10.7309 6.78286 10.7152C7.56682 10.7038 8.06075 10.0877 8.53183 9.45701C8.88261 9.01185 9.15254 8.51986 9.33161 7.99925C8.41031 7.65053 7.79507 6.82078 7.79399 5.92557Z" fill="#041133"/>
<path d="M6.35518 2.11221C6.78263 1.65299 6.99321 1.06273 6.94222 0.466797C6.28918 0.52818 5.68595 0.807502 5.25273 1.24911C4.8291 1.68058 4.60864 2.26045 4.65032 2.8336C5.30359 2.83962 5.94582 2.56787 6.35518 2.11221Z" fill="#041133"/>
</svg>
