<svg width="11" height="14" viewBox="0 0 11 14" fill="none" xmlns="http://www.w3.org/2000/svg">
<path d="M2.6437 5.47334L2.5416 13.3943H0L0.102091 0.169999H2.5416V2.29472H2.70298C3.00349 1.60348 3.47361 1.04821 4.11415 0.628919C4.76005 0.209667 5.5735 0 6.55367 0C7.44327 0 8.22255 0.186971 8.89109 0.560952C9.56004 0.929209 10.0783 1.47883 10.4468 2.20974C10.8152 2.94065 10.9992 3.84436 10.9992 4.92092L10.8971 13.3943H8.35592L8.4576 5.22685C8.4576 4.28063 8.21143 3.54123 7.71826 3.00862C7.22509 2.47036 6.5479 2.20122 5.68671 2.20122C5.09721 2.20122 4.57316 2.3287 4.11415 2.58368C3.66091 2.83866 3.30112 3.2126 3.03477 3.70555C2.77378 4.19281 2.6437 4.7821 2.6437 5.47334Z" fill="white"/>
</svg>
