<svg width="4" height="18" viewBox="0 0 4 18" fill="none" xmlns="http://www.w3.org/2000/svg">
<path d="M0.323031 17.6518V5.04836H2.86459L1.60655 11.5496L2.86459 17.6518H0.323031ZM1.60655 3.03412C1.16455 3.03412 0.784875 2.88681 0.467525 2.59217C0.155855 2.29188 0 1.93491 0 1.5213C0 1.10201 0.155855 0.74508 0.467525 0.450434C0.784875 0.150145 1.16455 0 1.60655 0C2.04856 0 2.42539 0.150145 2.73706 0.450434C3.05441 0.74508 3.21307 1.10201 3.21307 1.5213C3.21307 1.93491 3.05441 2.29188 2.73706 2.59217C2.42539 2.88681 2.04856 3.03412 1.60655 3.03412Z" fill="white"/>
</svg>
