<svg width="382" height="95" viewBox="0 0 382 95" fill="none" xmlns="http://www.w3.org/2000/svg">
<g opacity="0.05">
<path d="M11.1948 70.8774H0L25.1542 0.988281H37.3389L62.4931 70.8774H51.2982L31.5366 13.683H30.9906L11.1948 70.8774ZM13.072 43.5087H49.387V52.3814H13.072V43.5087Z" fill="white"/>
<path d="M67.4313 70.8767V20.2705H77.6364L72.585 46.3746L77.6364 70.8767H67.4313ZM72.585 12.1828C70.8103 12.1828 69.2858 11.5913 68.0115 10.4083C66.7601 9.20252 66.1343 7.76919 66.1343 6.10844C66.1343 4.42486 66.7601 2.9917 68.0115 1.80861C69.2858 0.602871 70.8103 0 72.585 0C74.3598 0 75.8729 0.602871 77.1243 1.80861C78.3986 2.9917 79.0356 4.42486 79.0356 6.10844C79.0356 7.76919 78.3986 9.20252 77.1243 10.4083C75.8729 11.5913 74.3598 12.1828 72.585 12.1828Z" fill="white"/>
<path d="M106.186 71.9012C101.954 71.9012 98.1764 70.8205 94.8544 68.6593C91.5551 66.4752 88.9613 63.3699 87.0727 59.3429C85.2068 55.2934 84.2739 50.4362 84.2739 44.7713C84.2739 39.1065 85.2183 34.2607 87.1069 30.2339C89.0182 26.2072 91.6348 23.1245 94.9569 20.9859C98.2789 18.8473 102.045 17.7781 106.254 17.7781C109.508 17.7781 112.124 18.324 114.104 19.4161C116.106 20.4854 117.654 21.7367 118.746 23.17C119.861 24.6032 120.725 25.8658 121.34 26.9579H121.954V0.988281H132.159V70.8774H122.193V62.7214H121.34C120.725 63.8361 119.838 65.1102 118.678 66.5435C117.54 67.9768 115.97 69.2281 113.968 70.2974C111.965 71.3665 109.371 71.9012 106.186 71.9012ZM108.438 63.1992C111.374 63.1992 113.854 62.4256 115.879 60.8787C117.927 59.3089 119.474 57.1362 120.521 54.3607C121.59 51.5852 122.125 48.3546 122.125 44.6689C122.125 41.0289 121.601 37.8438 120.555 35.1138C119.508 32.3838 117.972 30.2566 115.947 28.7325C113.922 27.2082 111.419 26.446 108.438 26.446C105.367 26.446 102.807 27.2422 100.759 28.8348C98.7112 30.4273 97.164 32.5999 96.1172 35.3528C95.0934 38.1055 94.5815 41.211 94.5815 44.6689C94.5815 48.1725 95.1048 51.3235 96.1514 54.1219C97.1981 56.9201 98.7454 59.1382 100.793 60.7763C102.864 62.3915 105.412 63.1992 108.438 63.1992Z" fill="white"/>
<path d="M179.275 19.3483C178.912 16.1177 177.411 13.6153 174.771 11.8407C172.131 10.0434 168.809 9.14475 164.805 9.14475C161.938 9.14475 159.458 9.59976 157.364 10.5098C155.271 11.397 153.644 12.6255 152.484 14.1953C151.346 15.7424 150.777 17.5056 150.777 19.4849C150.777 21.1456 151.164 22.5788 151.937 23.7845C152.734 24.9904 153.769 26.0028 155.043 26.8217C156.34 27.6181 157.728 28.2891 159.207 28.8353C160.686 29.3584 162.108 29.7908 163.474 30.132L170.3 31.9065C172.53 32.4525 174.816 33.1918 177.159 34.1246C179.503 35.0575 181.677 36.2859 183.679 37.8102C185.68 39.3345 187.297 41.2228 188.525 43.475C189.776 45.7274 190.403 48.4232 190.403 51.5628C190.403 55.5214 189.378 59.0362 187.33 62.1076C185.305 65.1789 182.36 67.6018 178.492 69.3763C174.645 71.1509 169.992 72.0381 164.532 72.0381C159.298 72.0381 154.77 71.2078 150.948 69.547C147.125 67.8861 144.133 65.5315 141.971 62.4829C139.81 59.4117 138.615 55.7716 138.388 51.5628H148.968C149.173 54.088 149.992 56.1926 151.426 57.876C152.882 59.5367 154.736 60.7767 156.989 61.5957C159.264 62.392 161.756 62.7901 164.463 62.7901C167.444 62.7901 170.095 62.3237 172.416 61.391C174.759 60.4355 176.602 59.1159 177.945 57.4324C179.287 55.7261 179.958 53.7354 179.958 51.4604C179.958 49.3901 179.368 47.6953 178.184 46.3758C177.024 45.0562 175.442 43.9641 173.44 43.0997C171.46 42.2352 169.219 41.4731 166.716 40.8133L158.456 38.5609C152.859 37.0366 148.422 34.7958 145.146 31.8382C141.892 28.8807 140.265 24.9676 140.265 20.099C140.265 16.0722 141.357 12.5574 143.541 9.55428C145.726 6.55116 148.684 4.21923 152.415 2.55848C156.147 0.875074 160.356 0.0332031 165.044 0.0332031C169.776 0.0332031 173.951 0.86366 177.569 2.52441C181.211 4.18516 184.077 6.47161 186.17 9.38359C188.264 12.2729 189.357 15.5944 189.447 19.3483H179.275Z" fill="white"/>
<path d="M197.38 94.608V18.4609H207.347V26.9582H208.2C208.792 25.8661 209.645 24.6034 210.76 23.1703C211.874 21.7369 213.422 20.4857 215.402 19.4164C217.38 18.3243 219.997 17.7783 223.252 17.7783C227.483 17.7783 231.26 18.8476 234.583 20.9862C237.905 23.1248 240.51 26.2074 242.399 30.2342C244.31 34.2609 245.265 39.1067 245.265 44.7716C245.265 50.4364 244.322 55.2936 242.432 59.3432C240.545 63.3701 237.95 66.4755 234.65 68.6595C231.351 70.8208 227.586 71.9015 223.354 71.9015C220.169 71.9015 217.564 71.3669 215.537 70.2976C213.536 69.2283 211.965 67.9771 210.828 66.5438C209.691 65.1105 208.815 63.8364 208.2 62.7218H207.585V94.608H197.38ZM207.38 44.6694C207.38 48.3549 207.916 51.5854 208.985 54.361C210.055 57.1365 211.602 59.3092 213.627 60.8789C215.651 62.4259 218.133 63.1994 221.066 63.1994C224.116 63.1994 226.665 62.3918 228.713 60.7766C230.761 59.1385 232.308 56.9203 233.354 54.1221C234.424 51.3238 234.958 48.1728 234.958 44.6694C234.958 41.2113 234.435 38.1058 233.387 35.3531C232.364 32.6002 230.817 30.4275 228.746 28.8351C226.698 27.2425 224.139 26.4463 221.066 26.4463C218.109 26.4463 215.607 27.2084 213.559 28.7327C211.534 30.2569 209.997 32.384 208.95 35.1141C207.904 37.8441 207.38 41.0292 207.38 44.6694Z" fill="white"/>
<path d="M252.099 71.1496L257.52 44.7705L251.894 18.4598H261.757V26.7864H262.304C263.259 23.9653 264.943 21.7472 267.355 20.1319C269.79 18.4939 272.542 17.6748 275.615 17.6748C276.251 17.6748 277.002 17.6976 277.868 17.7431C278.754 17.7886 279.448 17.8455 279.949 17.9138V27.6737C279.539 27.5599 278.812 27.4347 277.765 27.2983C276.717 27.139 275.671 27.0594 274.625 27.0594C272.213 27.0594 270.063 27.5713 268.173 28.595C266.309 29.5961 264.829 30.9952 263.737 32.7924C262.644 34.567 262.099 36.5917 262.099 38.8668L262.304 71.1496H252.099Z" fill="white"/>
<path d="M283.976 71.5593V20.2705H294.18V71.5593H283.976ZM289.128 12.1828C287.355 12.1828 285.829 11.5913 284.556 10.4083C283.304 9.20252 282.679 7.76919 282.679 6.10844C282.679 4.42486 283.304 2.9917 284.556 1.80861C285.829 0.602871 287.355 0 289.128 0C290.904 0 292.418 0.602871 293.669 1.80861C294.944 2.9917 295.58 4.42486 295.58 6.10844C295.58 7.76919 294.944 9.20252 293.669 10.4083C292.418 11.5913 290.904 12.1828 289.128 12.1828Z" fill="white"/>
<path d="M313.309 39.7553L312.9 71.5603H302.694L303.104 18.4609H312.9V26.9923H313.548C314.754 24.2167 316.642 21.9872 319.214 20.3036C321.807 18.6202 325.073 17.7783 329.009 17.7783C332.581 17.7783 335.71 18.5291 338.394 20.0307C341.08 21.5093 343.162 23.7162 344.641 26.651C346.12 29.5858 346.859 33.2145 346.859 37.5371L346.449 71.5603H336.246L336.654 38.7655C336.654 34.9662 335.665 31.9973 333.685 29.8587C331.705 27.6975 328.986 26.6168 325.528 26.6168C323.161 26.6168 321.057 27.1287 319.214 28.1525C317.394 29.1763 315.949 30.6778 314.88 32.6571C313.832 34.6136 313.309 36.9797 313.309 39.7553Z" fill="white"/>
<path d="M380.211 18.4596V26.6497H351.576V18.4596H380.211ZM359.255 5.90137H369.46V55.4859C369.46 57.465 369.756 58.9552 370.346 59.9562C370.938 60.9345 371.702 61.6057 372.634 61.9696C373.589 62.311 374.624 62.4815 375.74 62.4815C376.558 62.4815 377.276 62.4246 377.89 62.311C378.504 62.1972 378.983 62.1062 379.324 62.0379L381.167 70.4669C380.575 70.6945 379.733 70.9219 378.641 71.1495C377.548 71.3997 376.183 71.5361 374.545 71.559C371.861 71.6045 369.358 71.1266 367.037 70.1257C364.715 69.1247 362.839 67.5775 361.406 65.4846C359.971 63.3915 359.255 60.7639 359.255 57.6016V5.90137Z" fill="white"/>
</g>
</svg>
