<svg width="13" height="18" viewBox="0 0 13 18" fill="none" xmlns="http://www.w3.org/2000/svg">
<path d="M10.183 4.8104C10.0924 4.00583 9.71865 3.3826 9.06123 2.94065C8.4038 2.49302 7.57636 2.26922 6.57911 2.26922C5.86512 2.26922 5.24742 2.38254 4.72609 2.60918C4.20472 2.83013 3.79956 3.13611 3.51058 3.52706C3.22723 3.91237 3.08553 4.35148 3.08553 4.84442C3.08553 5.25803 3.18186 5.61496 3.37456 5.91525C3.5729 6.21558 3.83073 6.46771 4.14808 6.67165C4.47107 6.86999 4.81674 7.03711 5.1851 7.17312C5.55345 7.30341 5.9076 7.41109 6.24764 7.49607L7.94768 7.93802C8.50302 8.07399 9.07234 8.25812 9.65608 8.49044C10.2398 8.72276 10.7812 9.0287 11.2797 9.40832C11.7782 9.78795 12.1808 10.2582 12.4867 10.8191C12.7983 11.3801 12.9543 12.0515 12.9543 12.8334C12.9543 13.8193 12.6991 14.6947 12.189 15.4596C11.6848 16.2245 10.9512 16.8279 9.98788 17.2698C9.02994 17.7118 7.87111 17.9327 6.5111 17.9327C5.20778 17.9327 4.08007 17.726 3.12806 17.3124C2.17605 16.8987 1.43086 16.3123 0.892484 15.553C0.354153 14.7882 0.0566448 13.8816 0 12.8334H2.63505C2.68606 13.4623 2.89004 13.9864 3.24707 14.4057C3.60975 14.8193 4.07159 15.1281 4.63256 15.3321C5.19926 15.5304 5.81976 15.6295 6.49414 15.6295C7.23633 15.6295 7.89663 15.5134 8.47461 15.2811C9.05834 15.0431 9.51735 14.7145 9.85162 14.2952C10.1859 13.8703 10.353 13.3745 10.353 12.8079C10.353 12.2923 10.2061 11.8702 9.91131 11.5416C9.62232 11.2129 9.22836 10.941 8.72984 10.7257C8.23667 10.5104 7.67845 10.3206 7.0552 10.1562L4.99808 9.59529C3.60406 9.21567 2.49904 8.6576 1.68304 7.92101C0.872685 7.18445 0.467485 6.20989 0.467485 4.99737C0.467485 3.99451 0.739511 3.11914 1.28352 2.37121C1.82754 1.62329 2.5642 1.04253 3.49357 0.628919C4.4229 0.209667 5.47128 0 6.63864 0C7.81718 0 8.85704 0.206825 9.75817 0.620433C10.6651 1.03404 11.3789 1.60348 11.9001 2.3287C12.4216 3.04829 12.6937 3.8755 12.7164 4.8104H10.183Z" fill="white"/>
</svg>
