<svg width="8" height="17" viewBox="0 0 8 17" fill="none" xmlns="http://www.w3.org/2000/svg">
<path d="M7.13164 3.12762V5.16736H0V3.12762H7.13164ZM1.91258 0H4.45419V12.349C4.45419 12.8419 4.52788 13.213 4.67484 13.4623C4.82222 13.706 5.0124 13.8731 5.24458 13.9637C5.48252 14.0488 5.74022 14.0912 6.01809 14.0912C6.22187 14.0912 6.40053 14.0771 6.55367 14.0488C6.70639 14.0204 6.82578 13.9978 6.91058 13.9808L7.36958 16.08C7.22221 16.1367 7.01267 16.1933 6.74056 16.25C6.46845 16.3123 6.12842 16.3463 5.72046 16.352C5.05192 16.3633 4.42867 16.2443 3.85069 15.995C3.27231 15.7457 2.80507 15.3604 2.44816 14.8392C2.09083 14.3179 1.91258 13.6635 1.91258 12.8759V0Z" fill="white"/>
</svg>
