<svg width="788" height="196" viewBox="0 0 788 196" fill="none" xmlns="http://www.w3.org/2000/svg">
<g opacity="0.05">
<path d="M23.1273 146.425H0L51.9661 2.0415H77.1382L129.104 146.425H105.977L65.1513 28.2675H64.0234L23.1273 146.425ZM27.0054 89.8843H102.028V108.214H27.0054V89.8843Z" fill="white"/>
<path d="M139.307 146.424V41.8769H160.389L149.954 95.8052L160.389 146.424H139.307ZM149.954 25.1684C146.287 25.1684 143.138 23.9465 140.505 21.5024C137.92 19.0115 136.627 16.0503 136.627 12.6194C136.627 9.14131 137.92 6.18054 140.505 3.73641C143.138 1.24547 146.287 0 149.954 0C153.62 0 156.746 1.24547 159.331 3.73641C161.964 6.18054 163.28 9.14131 163.28 12.6194C163.28 16.0503 161.964 19.0115 159.331 21.5024C156.746 23.9465 153.62 25.1684 149.954 25.1684Z" fill="white"/>
<path d="M219.369 148.54C210.625 148.54 202.822 146.308 195.959 141.843C189.143 137.331 183.785 130.915 179.883 122.596C176.028 114.23 174.101 104.196 174.101 92.4928C174.101 80.7898 176.052 70.7788 179.954 62.46C183.902 54.1411 189.308 47.7727 196.171 43.3546C203.034 38.9365 210.814 36.7274 219.51 36.7274C226.232 36.7274 231.637 37.8554 235.727 40.1116C239.864 42.3206 243.06 44.9055 245.316 47.8666C247.62 50.8274 249.406 53.4359 250.675 55.6921H251.944V2.0415H273.027V146.425H252.438V129.576H250.675C249.406 131.879 247.573 134.511 245.175 137.472C242.825 140.433 239.582 143.018 235.445 145.227C231.308 147.436 225.95 148.54 219.369 148.54ZM224.022 130.563C230.086 130.563 235.21 128.965 239.394 125.769C243.624 122.526 246.821 118.037 248.983 112.303C251.192 106.569 252.297 99.8955 252.297 92.2812C252.297 84.7613 251.216 78.1813 249.053 72.5413C246.891 66.9013 243.718 62.5068 239.535 59.3581C235.351 56.2091 230.18 54.6345 224.022 54.6345C217.677 54.6345 212.388 56.2795 208.158 59.5696C203.927 62.8594 200.731 67.3479 198.568 73.035C196.453 78.7218 195.395 85.1375 195.395 92.2812C195.395 99.5193 196.477 106.029 198.639 111.81C200.801 117.591 203.998 122.173 208.228 125.557C212.506 128.894 217.771 130.563 224.022 130.563Z" fill="white"/>
<path d="M370.364 39.9717C369.613 33.2978 366.513 28.128 361.059 24.462C355.606 20.7488 348.742 18.8924 340.47 18.8924C334.547 18.8924 329.423 19.8324 325.099 21.7124C320.774 23.5452 317.413 26.0833 315.016 29.3263C312.665 32.5225 311.49 36.1649 311.49 40.254C311.49 43.6849 312.289 46.6457 313.887 49.1366C315.533 51.6279 317.671 53.7194 320.304 55.4111C322.983 57.0564 325.851 58.4426 328.906 59.5709C331.962 60.6517 334.899 61.5449 337.72 62.2498L351.822 65.9158C356.429 67.0437 361.151 68.5711 365.994 70.4982C370.836 72.4254 375.326 74.9632 379.462 78.1122C383.597 81.2612 386.937 85.1623 389.474 89.8152C392.059 94.4683 393.353 100.038 393.353 106.524C393.353 114.702 391.236 121.963 387.005 128.308C382.822 134.653 376.736 139.659 368.746 143.325C360.8 146.991 351.187 148.823 339.906 148.823C329.094 148.823 319.74 147.108 311.843 143.677C303.946 140.246 297.764 135.382 293.298 129.084C288.833 122.739 286.365 115.219 285.895 106.524H307.753C308.176 111.741 309.868 116.088 312.83 119.566C315.838 122.997 319.669 125.559 324.323 127.251C329.024 128.896 334.171 129.718 339.765 129.718C345.921 129.718 351.399 128.754 356.193 126.828C361.035 124.854 364.843 122.128 367.616 118.65C370.388 115.125 371.775 111.012 371.775 106.312C371.775 102.035 370.556 98.5338 368.111 95.8078C365.714 93.0818 362.446 90.8256 358.31 89.0399C354.219 87.2538 349.589 85.6793 344.419 84.3163L327.355 79.6631C315.791 76.5141 306.625 71.8848 299.856 65.7747C293.134 59.6649 289.773 51.5808 289.773 41.5227C289.773 33.2038 292.029 25.9425 296.542 19.7384C301.055 13.5343 307.165 8.71675 314.875 5.28582C322.584 1.80807 331.28 0.0688477 340.963 0.0688477C350.74 0.0688477 359.365 1.78449 366.84 5.21543C374.363 8.64636 380.284 13.3699 384.608 19.3858C388.934 25.3548 391.191 32.2167 391.379 39.9717H370.364Z" fill="white"/>
<path d="M407.766 195.451V38.1392H428.357V55.6936H430.119C431.342 53.4374 433.104 50.829 435.409 47.8682C437.71 44.9071 440.907 42.3222 444.998 40.1131C449.085 37.8569 454.491 36.729 461.215 36.729C469.956 36.729 477.759 38.938 484.623 43.3561C491.487 47.7742 496.868 54.1427 500.772 62.4616C504.719 70.7804 506.693 80.7913 506.693 92.4943C506.693 104.197 504.743 114.232 500.84 122.598C496.94 130.917 491.579 137.332 484.763 141.844C477.947 146.309 470.168 148.542 461.426 148.542C454.846 148.542 449.464 147.438 445.278 145.228C441.142 143.019 437.898 140.435 435.549 137.473C433.2 134.512 431.39 131.88 430.119 129.578H428.849V195.451H407.766ZM428.426 92.2831C428.426 99.8971 429.532 106.571 431.741 112.305C433.951 118.039 437.147 122.527 441.33 125.77C445.513 128.966 450.639 130.564 456.7 130.564C463 130.564 468.266 128.896 472.497 125.559C476.728 122.175 479.924 117.592 482.086 111.812C484.295 106.03 485.398 99.5209 485.398 92.2831C485.398 85.139 484.319 78.7234 482.154 73.0366C480.04 67.3495 476.844 62.861 472.565 59.5712C468.334 56.281 463.048 54.6361 456.7 54.6361C450.591 54.6361 445.421 56.2106 441.19 59.3597C437.007 62.5084 433.831 66.9029 431.67 72.5429C429.508 78.1828 428.426 84.7628 428.426 92.2831Z" fill="white"/>
<path d="M520.81 146.988L532.01 92.491L520.386 38.1358H540.762V55.3377H541.893C543.866 49.5098 547.346 44.9273 552.328 41.5904C557.358 38.2062 563.044 36.5142 569.392 36.5142C570.707 36.5142 572.257 36.5613 574.046 36.6553C575.877 36.7492 577.311 36.8668 578.346 37.0079V57.1709C577.499 56.9358 575.996 56.6771 573.835 56.3952C571.67 56.0662 569.508 55.9018 567.346 55.9018C562.364 55.9018 557.922 56.9594 554.019 59.0741C550.167 61.1424 547.11 64.0327 544.853 67.7456C542.596 71.4116 541.469 75.5946 541.469 80.2946L541.893 146.988H520.81Z" fill="white"/>
<path d="M586.666 147.834V41.8769H607.745V147.834H586.666ZM597.31 25.1684C593.646 25.1684 590.494 23.9465 587.865 21.5024C585.276 19.0115 583.985 16.0503 583.985 12.6194C583.985 9.14131 585.276 6.18054 587.865 3.73641C590.494 1.24547 593.646 0 597.31 0C600.977 0 604.105 1.24547 606.69 3.73641C609.323 6.18054 610.638 9.14131 610.638 12.6194C610.638 16.0503 609.323 19.0115 606.69 21.5024C604.105 23.9465 600.977 25.1684 597.31 25.1684Z" fill="white"/>
<path d="M647.265 82.1311L646.418 147.837H625.335L626.182 38.1392H646.418V55.764H647.757C650.25 50.0301 654.149 45.4241 659.463 41.946C664.821 38.4682 671.568 36.729 679.699 36.729C687.078 36.729 693.543 38.28 699.088 41.3822C704.637 44.4369 708.937 48.9961 711.993 55.0591C715.049 61.1221 716.575 68.6185 716.575 77.5487L715.729 147.837H694.649L695.492 80.0864C695.492 72.2374 693.45 66.104 689.359 61.6859C685.269 57.221 679.651 54.9884 672.507 54.9884C667.617 54.9884 663.27 56.0459 659.463 58.161C655.703 60.2761 652.719 63.378 650.509 67.467C648.344 71.5089 647.265 76.3972 647.265 82.1311Z" fill="white"/>
<path d="M785.477 38.136V55.0559H726.319V38.136H785.477ZM742.184 12.1919H763.267V114.628C763.267 118.717 763.878 121.796 765.097 123.864C766.32 125.885 767.897 127.271 769.823 128.023C771.797 128.728 773.935 129.081 776.24 129.081C777.93 129.081 779.412 128.963 780.682 128.728C781.949 128.493 782.94 128.305 783.643 128.164L787.451 145.578C786.228 146.048 784.49 146.518 782.233 146.988C779.976 147.505 777.155 147.787 773.771 147.834C768.225 147.928 763.055 146.941 758.261 144.873C753.463 142.805 749.587 139.609 746.627 135.285C743.663 130.961 742.184 125.532 742.184 118.999V12.1919Z" fill="white"/>
</g>
</svg>
