<svg width="23" height="28" viewBox="0 0 23 28" fill="none" xmlns="http://www.w3.org/2000/svg">
<path d="M18.8522 14.3322C18.8798 12.4155 20.0299 10.6019 21.8545 9.59804C20.7035 8.12684 18.7755 7.19406 16.7697 7.13789C14.6303 6.93692 12.5562 8.28358 11.466 8.28358C10.3547 8.28358 8.67619 7.15785 6.86869 7.19113C4.51269 7.25925 2.3163 8.45802 1.17006 10.3014C-1.29391 14.1192 0.543988 19.7301 2.90427 22.8161C4.08516 24.3273 5.4653 26.0153 7.27117 25.9554C9.03832 25.8898 9.69832 24.9469 11.8314 24.9469C13.9447 24.9469 14.564 25.9554 16.4065 25.9174C18.3027 25.8898 19.4974 24.3995 20.6369 22.874C21.4854 21.7973 22.1383 20.6073 22.5714 19.348C20.343 18.5045 18.8548 16.4975 18.8522 14.3322Z" fill="#041133"/>
<path d="M15.372 5.10837C16.4059 3.99759 16.9153 2.56988 16.7919 1.12842C15.2123 1.27689 13.7532 1.95252 12.7054 3.02068C11.6807 4.06432 11.1474 5.46692 11.2482 6.85328C12.8284 6.86784 14.3818 6.21053 15.372 5.10837Z" fill="#041133"/>
</svg>
