<svg width="12" height="18" viewBox="0 0 12 18" fill="none" xmlns="http://www.w3.org/2000/svg">
<path d="M5.45712 17.6608C4.4031 17.6608 3.46241 17.3917 2.63505 16.8534C1.81337 16.3095 1.16739 15.5361 0.697026 14.5332C0.232341 13.5246 0 12.315 0 10.9041C0 9.4933 0.235183 8.28646 0.705549 7.2836C1.18155 6.28074 1.83321 5.51301 2.66057 4.98039C3.48793 4.44778 4.42578 4.18148 5.47412 4.18148C6.28448 4.18148 6.93614 4.31745 7.42919 4.58944C7.92784 4.85575 8.3132 5.16737 8.58518 5.52434C8.86289 5.88126 9.07823 6.19572 9.2312 6.46771H9.38422V0H11.9258V17.4058H9.4437V15.3746H9.2312C9.07823 15.6522 8.85721 15.9695 8.56818 16.3265C8.28487 16.6834 7.89384 16.9951 7.39519 17.2614C6.8965 17.5276 6.25048 17.6608 5.45712 17.6608ZM6.01814 15.4936C6.74917 15.4936 7.36682 15.3009 7.87119 14.9156C8.3812 14.5247 8.76652 13.9836 9.02722 13.2924C9.29353 12.6011 9.4267 11.7966 9.4267 10.8786C9.4267 9.97208 9.29637 9.17884 9.0357 8.49893C8.77504 7.81901 8.39252 7.28925 7.8882 6.90966C7.38383 6.53004 6.76049 6.34022 6.01814 6.34022C5.25314 6.34022 4.6156 6.53852 4.10559 6.93516C3.59559 7.33176 3.21027 7.87285 2.94956 8.55845C2.69458 9.24401 2.56709 10.0174 2.56709 10.8786C2.56709 11.7512 2.69742 12.5359 2.95808 13.2329C3.21875 13.9298 3.60411 14.4822 4.11411 14.8901C4.62976 15.2924 5.26446 15.4936 6.01814 15.4936Z" fill="white"/>
</svg>
