<svg width="198" height="22" viewBox="0 0 198 22" fill="none" xmlns="http://www.w3.org/2000/svg">
<path d="M57.3934 0L56.9312 0C57.1623 0 57.2372 0 57.3934 0Z" fill="black"/>
<path d="M57.3934 0C59.6913 0 61.5541 1.86278 61.5541 4.16066C61.5541 4.31692 61.5709 4.47115 61.5541 4.62295V5.08525C61.5541 11.2129 66.5215 16.1803 72.6492 16.1803L125.351 16.1803C131.478 16.1803 136.446 11.2129 136.446 5.08525V4.62295C136.446 4.3918 136.446 4.31692 136.446 4.16066C136.446 1.86278 138.309 0 140.607 0C140.763 0 140.838 0 141.069 0L140.607 0L57.3934 0Z" fill="black"/>
</svg>
